<?xml version="1.0" encoding="UTF-8" standalone="no"?>
<!-- Created with Inkscape (http://www.inkscape.org/) -->

<svg
   xmlns:dc="http://purl.org/dc/elements/1.1/"
   xmlns:cc="http://creativecommons.org/ns#"
   xmlns:rdf="http://www.w3.org/1999/02/22-rdf-syntax-ns#"
   xmlns:svg="http://www.w3.org/2000/svg"
   xmlns="http://www.w3.org/2000/svg"
   xmlns:sodipodi="http://sodipodi.sourceforge.net/DTD/sodipodi-0.dtd"
   xmlns:inkscape="http://www.inkscape.org/namespaces/inkscape"
   width="210mm"
   height="297mm"
   viewBox="0 0 744.09448819 1052.3622047"
   id="svg2"
   version="1.1"
   inkscape:version="0.91 r13725"
   sodipodi:docname="logo.svg">
  <defs
     id="defs4" />
  <sodipodi:namedview
     id="base"
     pagecolor="#ffffff"
     bordercolor="#666666"
     borderopacity="1.0"
     inkscape:pageopacity="0.0"
     inkscape:pageshadow="2"
     inkscape:zoom="5.6568542"
     inkscape:cx="-153.91578"
     inkscape:cy="551.65851"
     inkscape:document-units="px"
     inkscape:current-layer="g4194"
     showgrid="false"
     showborder="false"
     inkscape:window-width="1920"
     inkscape:window-height="1054"
     inkscape:window-x="1920"
     inkscape:window-y="0"
     inkscape:window-maximized="1" />
  <metadata
     id="metadata7">
    <rdf:RDF>
      <cc:Work
         rdf:about="">
        <dc:format>image/svg+xml</dc:format>
        <dc:type
           rdf:resource="http://purl.org/dc/dcmitype/StillImage" />
        <dc:title></dc:title>
      </cc:Work>
    </rdf:RDF>
  </metadata>
  <g
     inkscape:label="editable"
     inkscape:groupmode="layer"
     id="layer1"
     style="display:none">
    <g
       transform="translate(141,69)"
       style="font-style:normal;font-weight:normal;font-size:40px;line-height:125%;font-family:sans-serif;letter-spacing:0px;word-spacing:0px;fill:#000000;fill-opacity:1;stroke:none;stroke-width:1px;stroke-linecap:butt;stroke-linejoin:miter;stroke-opacity:1"
       id="flowRoot4136">
      <path
         d="m -335.71875,304.35612 0,13.84375 c 0,0.125 0,0.28125 0,0.40625 l 0,8.75 c 0,1 0.8125,1.8125 1.8125,1.8125 0.96875,0 1.78125,-0.8125 1.78125,-1.8125 l 0,-7.125 12.28125,0 c 0.96875,0 1.78125,-0.8125 1.78125,-1.8125 0,-0.96875 -0.8125,-1.78125 -1.78125,-1.78125 l -9.75,0 11,-11 c 0.53125,-0.53125 0.6875,-1.25 0.40625,-1.96875 -0.3125,-0.6875 -0.90625,-1.09375 -1.65625,-1.09375 l -14.0625,0 c -1.0625,0 -1.8125,0.75 -1.8125,1.78125 z m 3.59375,9.75 0,-7.9375 7.9375,0 -7.9375,7.9375 z"
         style="font-style:normal;font-variant:normal;font-weight:200;font-stretch:normal;font-size:31.25px;font-family:Nemoy;-inkscape-font-specification:'Nemoy Ultra-Light';fill:#000000;fill-opacity:1"
         id="path4224"
         inkscape:connector-curvature="0" />
      <path
         d="m -309.59619,325.57487 0,-4.84375 4.84375,4.84375 -4.84375,0 z m 0,-9.90625 0,-11.3125 c 0,-0.96875 -0.8125,-1.78125 -1.78125,-1.78125 -1,0 -1.8125,0.8125 -1.8125,1.78125 l 0,23 c 0,1.0625 0.75,1.8125 1.8125,1.8125 l 10.96875,0 c 0.75,0 1.34375,-0.40625 1.65625,-1.09375 0.28125,-0.71875 0.125,-1.4375 -0.40625,-1.96875 l -10.4375,-10.4375 z"
         style="font-style:normal;font-variant:normal;font-weight:200;font-stretch:normal;font-size:31.25px;font-family:Nemoy;-inkscape-font-specification:'Nemoy Ultra-Light';fill:#000000;fill-opacity:1"
         id="path4226"
         inkscape:connector-curvature="0" />
      <path
         d="m -282.52197,328.35612 5.0625,-7.59375 3.9375,7.4375 c 0.4375,0.875 1.53125,1.21875 2.40625,0.75 0.875,-0.4375 1.21875,-1.53125 0.75,-2.40625 l -12.125,-23 c -0.3125,-0.625 -0.875,-0.96875 -1.59375,-0.96875 -0.6875,0 -1.25,0.34375 -1.59375,0.96875 l -6.625,12.625 c -0.125,0.15625 -0.1875,0.3125 -0.25,0.5 l -5.1875,9.875 c -0.46875,0.875 -0.125,1.96875 0.75,2.40625 0.875,0.46875 1.96875,0.125 2.40625,-0.75 l 3.9375,-7.4375 5.125,7.625 c 0.34375,0.5 0.875,0.78125 1.5,0.78125 0.625,0 1.15625,-0.28125 1.5,-0.8125 z m 3.15625,-11.21875 -4.6875,7 -4.71875,-7 4.6875,-8.90625 4.71875,8.90625 z"
         style="font-style:normal;font-variant:normal;font-weight:200;font-stretch:normal;font-size:31.25px;font-family:Nemoy;-inkscape-font-specification:'Nemoy Ultra-Light';fill:#000000;fill-opacity:1"
         id="path4228"
         inkscape:connector-curvature="0" />
      <path
         d="m -260.58203,302.94987 -9.46875,7.34375 c -0.78125,0.625 -0.90625,1.75 -0.3125,2.53125 0.625,0.78125 1.75,0.90625 2.53125,0.3125 l 6.5625,-5.09375 0,19.3125 c 0,1 0.8125,1.8125 1.8125,1.8125 0.96875,0 1.78125,-0.8125 1.78125,-1.8125 l 0,-19.3125 6.5625,5.09375 c 0.78125,0.59375 1.90625,0.46875 2.53125,-0.3125 0.59375,-0.78125 0.46875,-1.90625 -0.3125,-2.53125 l -9.46875,-7.34375 c -0.6875,-0.53125 -1.53125,-0.53125 -2.21875,0 z"
         style="font-style:normal;font-variant:normal;font-weight:200;font-stretch:normal;font-size:31.25px;font-family:Nemoy;-inkscape-font-specification:'Nemoy Ultra-Light';fill:#000000;fill-opacity:1"
         id="path4230"
         inkscape:connector-curvature="0" />
      <path
         d="m -335.34375,343.41862 0,23 c 0,1 0.8125,1.8125 1.78125,1.8125 1,0 1.8125,-0.8125 1.8125,-1.8125 l 0,-6 7.71875,-6.5625 7.75,6.5625 0,6 c 0,1 0.78125,1.8125 1.78125,1.8125 1,0 1.8125,-0.8125 1.8125,-1.8125 l 0,-23 c 0,-0.71875 -0.375,-1.3125 -1.0625,-1.625 -0.65625,-0.3125 -1.34375,-0.21875 -1.90625,0.28125 l -8.375,7.09375 -8.34375,-7.09375 c -0.5625,-0.5 -1.25,-0.59375 -1.9375,-0.28125 -0.65625,0.3125 -1.03125,0.90625 -1.03125,1.625 z m 19.0625,12.28125 -4.96875,-4.1875 4.96875,-4.1875 0,8.375 z m -15.46875,0 0,-8.375 4.9375,4.1875 -4.9375,4.1875 z"
         style="font-style:normal;font-variant:normal;font-weight:200;font-stretch:normal;font-size:31.25px;font-family:Nemoy;-inkscape-font-specification:'Nemoy Ultra-Light';fill:#000000;fill-opacity:1"
         id="path4232"
         inkscape:connector-curvature="0" />
      <path
         d="m -296.43799,367.41862 5.0625,-7.59375 3.9375,7.4375 c 0.4375,0.875 1.53125,1.21875 2.40625,0.75 0.875,-0.4375 1.21875,-1.53125 0.75,-2.40625 l -12.125,-23 c -0.3125,-0.625 -0.875,-0.96875 -1.59375,-0.96875 -0.6875,0 -1.25,0.34375 -1.59375,0.96875 l -6.625,12.625 c -0.125,0.15625 -0.1875,0.3125 -0.25,0.5 l -5.1875,9.875 c -0.46875,0.875 -0.125,1.96875 0.75,2.40625 0.875,0.46875 1.96875,0.125 2.40625,-0.75 l 3.9375,-7.4375 5.125,7.625 c 0.34375,0.5 0.875,0.78125 1.5,0.78125 0.625,0 1.15625,-0.28125 1.5,-0.8125 z m 3.15625,-11.21875 -4.6875,7 -4.71875,-7 4.6875,-8.90625 4.71875,8.90625 z"
         style="font-style:normal;font-variant:normal;font-weight:200;font-stretch:normal;font-size:31.25px;font-family:Nemoy;-inkscape-font-specification:'Nemoy Ultra-Light';fill:#000000;fill-opacity:1"
         id="path4234"
         inkscape:connector-curvature="0" />
      <path
         d="m -282.93555,343.41862 0,14.5 0,8.5 c 0,1 0.8125,1.8125 1.8125,1.8125 0.96875,0 1.78125,-0.8125 1.78125,-1.8125 l 0,-6.6875 4.15625,0 c 4.96875,0 9.03125,-4.0625 9.03125,-9.0625 0,-4.96875 -4.0625,-9.03125 -9.03125,-9.03125 l -5.9375,0 c -1.0625,0 -1.8125,0.75 -1.8125,1.78125 z m 3.59375,12.71875 0,-10.90625 4.15625,0 c 3,0 5.4375,2.4375 5.4375,5.4375 0,3.03125 -2.4375,5.46875 -5.4375,5.46875 l -4.15625,0 z"
         style="font-style:normal;font-variant:normal;font-weight:200;font-stretch:normal;font-size:31.25px;font-family:Nemoy;-inkscape-font-specification:'Nemoy Ultra-Light';fill:#000000;fill-opacity:1"
         id="path4236"
         inkscape:connector-curvature="0" />
      <path
         d="m -262.73291,343.41862 0,14.5 0,8.5 c 0,1 0.8125,1.8125 1.8125,1.8125 0.96875,0 1.78125,-0.8125 1.78125,-1.8125 l 0,-6.6875 4.15625,0 c 4.96875,0 9.03125,-4.0625 9.03125,-9.0625 0,-4.96875 -4.0625,-9.03125 -9.03125,-9.03125 l -5.9375,0 c -1.0625,0 -1.8125,0.75 -1.8125,1.78125 z m 3.59375,12.71875 0,-10.90625 4.15625,0 c 3,0 5.4375,2.4375 5.4375,5.4375 0,3.03125 -2.4375,5.46875 -5.4375,5.46875 l -4.15625,0 z"
         style="font-style:normal;font-variant:normal;font-weight:200;font-stretch:normal;font-size:31.25px;font-family:Nemoy;-inkscape-font-specification:'Nemoy Ultra-Light';fill:#000000;fill-opacity:1"
         id="path4238"
         inkscape:connector-curvature="0" />
      <path
         d="m -241.49902,368.23112 14.0625,0 c 0.96875,0 1.78125,-0.8125 1.78125,-1.8125 0,-0.96875 -0.8125,-1.78125 -1.78125,-1.78125 l -12.28125,0 0,-5.34375 12.28125,0 c 0.96875,0 1.78125,-0.8125 1.78125,-1.8125 0,-0.96875 -0.8125,-1.78125 -1.78125,-1.78125 l -9.75,0 11,-11 c 0.53125,-0.53125 0.6875,-1.25 0.40625,-1.96875 -0.3125,-0.6875 -0.90625,-1.09375 -1.65625,-1.09375 l -14.0625,0 c -1.0625,0 -1.8125,0.75 -1.8125,1.78125 l 0,13.84375 c 0,0.125 0,0.28125 0,0.40625 l 0,8.75 c 0,1.0625 0.75,1.8125 1.8125,1.8125 z m 1.78125,-15.0625 0,-7.9375 7.9375,0 -7.9375,7.9375 z"
         style="font-style:normal;font-variant:normal;font-weight:200;font-stretch:normal;font-size:31.25px;font-family:Nemoy;-inkscape-font-specification:'Nemoy Ultra-Light';fill:#000000;fill-opacity:1"
         id="path4240"
         inkscape:connector-curvature="0" />
      <path
         d="m -213.97021,341.63737 -5.71875,0 c -0.1875,-0.0312 -0.40625,0 -0.625,0.0625 -0.0312,0 -0.0625,0 -0.0937,0 -0.8125,0.25 -1.28125,0.90625 -1.28125,1.71875 l 0,23 c 0,1 0.8125,1.8125 1.8125,1.8125 0.96875,0 1.78125,-0.8125 1.78125,-1.8125 l 0,-6.6875 4.125,0 c 0.875,0 1.71875,-0.125 2.5,-0.34375 l 5.375,8.03125 c 0.53125,0.84375 1.65625,1.0625 2.46875,0.5 0.84375,-0.53125 1.0625,-1.65625 0.5,-2.46875 l -5.125,-7.75 c 2.03125,-1.65625 3.3125,-4.1875 3.3125,-7.03125 0,-4.96875 -4.03125,-9.03125 -9.03125,-9.03125 z m -2.5625,3.59375 2.5625,0 c 3,0 5.4375,2.4375 5.4375,5.4375 0,1.59375 -0.65625,3 -1.71875,4 l -6.28125,-9.4375 z m 2.90625,10.90625 c -0.0937,0 -0.21875,0 -0.34375,0 l -4.125,0 0,-6.75 4.46875,6.75 z"
         style="font-style:normal;font-variant:normal;font-weight:200;font-stretch:normal;font-size:31.25px;font-family:Nemoy;-inkscape-font-specification:'Nemoy Ultra-Light';fill:#000000;fill-opacity:1"
         id="path4242"
         inkscape:connector-curvature="0" />
    </g>
    <g
       transform="matrix(0.64123646,0,0,0.64123646,122.04878,178.21367)"
       style="font-style:normal;font-weight:normal;font-size:40px;line-height:125%;font-family:sans-serif;letter-spacing:0px;word-spacing:0px;fill:#000000;fill-opacity:1;stroke:none;stroke-width:1px;stroke-linecap:butt;stroke-linejoin:miter;stroke-opacity:1"
       id="flowRoot4136-3">
      <path
         d="m -327.4,322.23216 6.275,-18.425 c 0.25,-0.75 -0.15,-1.575 -0.9,-1.825 -0.75,-0.25 -1.575,0.15 -1.825,0.9 l -4.9,14.425 -4.9,-14.425 c -0.25,-0.75 -1.075,-1.15 -1.825,-0.9 -0.75,0.25 -1.15,1.075 -0.9,1.825 l 6.25,18.425 c 0.2,0.625 0.725,0.975 1.35,0.975 0.65,0 1.175,-0.35 1.375,-0.975 z"
         style="font-style:normal;font-variant:normal;font-weight:200;font-stretch:normal;font-size:25px;font-family:Nemoy;-inkscape-font-specification:'Nemoy Ultra-Light';fill:#000000;fill-opacity:1"
         id="path4215"
         inkscape:connector-curvature="0" />
      <path
         d="m -317.32109,312.48216 c 0,-4.375 2.775,-7.725 5.9,-7.725 3.15,0 5.925,3.35 5.925,7.725 0,4.375 -2.775,7.725 -5.925,7.725 -3.125,0 -5.9,-3.35 -5.9,-7.725 z m 5.9,-10.6 c -4.975,0 -8.775,4.875 -8.775,10.6 0,5.75 3.825,10.6 8.775,10.6 4.975,0 8.8,-4.85 8.8,-10.6 0,-5.75 -3.825,-10.6 -8.8,-10.6 z m -1.85,20.95 6.6,-19.425 c 0.25,-0.75 -0.15,-1.575 -0.9,-1.825 -0.75,-0.25 -1.575,0.15 -1.825,0.9 l -6.6,19.425 c -0.25,0.75 0.15,1.575 0.9,1.825 0.75,0.25 1.575,-0.15 1.825,-0.9 z"
         style="font-style:normal;font-variant:normal;font-weight:200;font-stretch:normal;font-size:25px;font-family:Nemoy;-inkscape-font-specification:'Nemoy Ultra-Light';fill:#000000;fill-opacity:1"
         id="path4217"
         inkscape:connector-curvature="0" />
      <path
         d="m -299.06992,318.90716 c 0,0 -0.05,0.05 -0.05,0.05 0,0 -0.05,-0.05 -0.05,-0.05 -0.575,-0.55 -1.475,-0.55 -2.05,0 -0.55,0.575 -0.55,1.475 0,2.05 l 0.05,0.05 -0.05,0.05 c -0.55,0.55 -0.55,1.475 0,2.025 0.575,0.575 1.475,0.575 2.025,0 0,0 0.075,-0.05 0.075,-0.05 0,0 0.05,0.05 0.05,0.05 0.55,0.575 1.475,0.575 2.025,0 0.575,-0.55 0.575,-1.475 0,-2.025 l -0.05,-0.05 0.05,-0.05 c 0.55,-0.575 0.55,-1.475 0,-2.05 -0.575,-0.55 -1.475,-0.55 -2.025,0 l 0,0 z"
         style="font-style:normal;font-variant:normal;font-weight:200;font-stretch:normal;font-size:25px;font-family:Nemoy;-inkscape-font-specification:'Nemoy Ultra-Light';fill:#000000;fill-opacity:1"
         id="path4219"
         inkscape:connector-curvature="0" />
      <path
         d="m -288.1582,320.33216 -1.5,0 0,-16.975 c 0,-0.625 -0.375,-1.15 -0.975,-1.35 -0.625,-0.2 -1.225,-0.025 -1.6,0.5 l -4.05,5.35 c -0.35,0.45 -0.4,1 -0.15,1.5 0.25,0.525 0.725,0.8 1.3,0.8 l 2.6,0 0,10.175 -1.475,0 c -0.8,0 -1.45,0.65 -1.45,1.425 0,0.8 0.65,1.45 1.45,1.45 l 2.925,0 2.925,0 c 0.775,0 1.425,-0.65 1.425,-1.45 0,-0.775 -0.65,-1.425 -1.425,-1.425 z"
         style="font-style:normal;font-variant:normal;font-weight:200;font-stretch:normal;font-size:25px;font-family:Nemoy;-inkscape-font-specification:'Nemoy Ultra-Light';fill:#000000;fill-opacity:1"
         id="path4221"
         inkscape:connector-curvature="0" />
    </g>
  </g>
  <g
     id="g4194"
     inkscape:groupmode="layer"
     inkscape:label="vecto"
     style="display:inline">
    <path
       style="font-style:normal;font-variant:normal;font-weight:200;font-stretch:normal;font-size:31.25px;line-height:125%;font-family:Nemoy;-inkscape-font-specification:'Nemoy Ultra-Light';letter-spacing:0px;word-spacing:0px;fill:#ffffff;fill-opacity:1;stroke:#000000;stroke-width:0.5;stroke-linecap:butt;stroke-linejoin:miter;stroke-miterlimit:4;stroke-dasharray:none;stroke-opacity:1"
       d="m -146.43955,455.73296 c -0.24339,0 -0.48678,0.0843 -0.70533,0.25296 l -6.0202,4.66243 c -0.49672,0.39681 -0.57619,1.11105 -0.19868,1.60705 0.39737,0.496 1.11264,0.57537 1.60935,0.1984 l 4.17241,-3.23394 0,12.2612 c 0,0.63488 0.51659,1.15073 1.15239,1.15073 0.61592,0 1.13251,-0.51585 1.13251,-1.15073 l 0,-12.2612 4.1724,3.23394 c 0.49672,0.37697 1.21199,0.2976 1.60936,-0.1984 0.37751,-0.496 0.29803,-1.21024 -0.19868,-1.60705 l -6.0202,-4.66243 c -0.21855,-0.16864 -0.46194,-0.25296 -0.70533,-0.25296 z m -47.32457,0.0153 c -0.67553,0 -1.15238,0.47616 -1.15238,1.13089 l 0,8.78917 0,0.25791 0,5.55524 c 0,0.63488 0.51658,1.15073 1.15238,1.15073 0.61593,0 1.13252,-0.51585 1.13252,-1.15073 l 0,-4.52355 7.80836,0 c 0.61593,0 1.13251,-0.51584 1.13251,-1.15072 0,-0.61505 -0.51658,-1.13089 -1.13251,-1.13089 l -6.19901,0 6.99375,-6.98372 c 0.33777,-0.33728 0.43712,-0.79361 0.2583,-1.24992 -0.19869,-0.43649 -0.5762,-0.69441 -1.05304,-0.69441 z m 14.32403,0 c -0.63579,0 -1.15237,0.51584 -1.15237,1.13089 l 0,14.60232 c 0,0.67456 0.47685,1.15073 1.15237,1.15073 l 6.97389,0 c 0.47684,0 0.85435,-0.25792 1.05304,-0.6944 0.17882,-0.45633 0.0795,-0.91265 -0.2583,-1.24994 l -6.63612,-6.6266 0,-7.18211 c 0,-0.61505 -0.51658,-1.13089 -1.13251,-1.13089 z m 17.35276,0 c -0.43711,0 -0.79475,0.21824 -1.0133,0.61504 l -4.21214,8.01541 c -0.0795,0.0992 -0.11922,0.1984 -0.15895,0.31744 l -3.29819,6.26948 c -0.29803,0.55552 -0.0795,1.24992 0.47684,1.52769 0.55632,0.2976 1.25172,0.0793 1.52989,-0.47617 l 2.50344,-4.72194 3.25846,4.84099 c 0.21855,0.31743 0.55632,0.496 0.95369,0.496 0.39737,0 0.73514,-0.17857 0.9537,-0.51585 l 3.21871,-4.82114 2.50344,4.72194 c 0.27817,0.55553 0.97356,0.77377 1.52988,0.47617 0.55633,-0.27777 0.77488,-0.97217 0.47685,-1.52769 l -7.70902,-14.60233 c -0.19869,-0.3968 -0.55632,-0.61504 -1.0133,-0.61504 z m -30.54427,2.28242 5.04662,0 -5.04662,5.03939 z m 30.54427,1.30944 3.00016,5.65444 -2.98029,4.44419 -3.00016,-4.44419 z m -16.22025,7.93606 3.07964,3.07521 -3.07964,0 z m -15.06911,13.26807 c -0.20861,-0.0298 -0.42717,0.005 -0.64572,0.10416 -0.41724,0.1984 -0.65567,0.57536 -0.65567,1.03169 l 0,14.60233 c 0,0.63489 0.51659,1.15072 1.13251,1.15072 0.6358,0 1.15239,-0.51583 1.15239,-1.15072 l 0,-3.80931 4.90754,-4.16642 4.92743,4.16642 0,3.80931 c 0,0.63489 0.49671,1.15072 1.1325,1.15072 0.6358,0 1.15238,-0.51583 1.15238,-1.15072 l 0,-14.60233 c 0,-0.45633 -0.23842,-0.83329 -0.67553,-1.03169 -0.41724,-0.1984 -0.85435,-0.13888 -1.21198,0.17856 l -5.3248,4.50372 -5.30491,-4.50372 c -0.17883,-0.15871 -0.37751,-0.25296 -0.58614,-0.28272 z m 72.03989,0.003 c -0.0671,0.008 -0.13659,0.0223 -0.20613,0.0421 l -0.0596,0 c -0.51659,0.15872 -0.81462,0.57536 -0.81462,1.09121 l 0,14.60232 c 0,0.63488 0.51658,1.15073 1.15238,1.15073 0.61593,0 1.13251,-0.51585 1.13251,-1.15073 l 0,-4.24578 2.62266,0 c 0.55632,0 1.09278,-0.0794 1.58949,-0.21825 l 3.4174,5.09891 c 0.33777,0.53569 1.05304,0.67457 1.56962,0.31745 0.53646,-0.33728 0.67554,-1.05153 0.3179,-1.56737 l -3.25845,-4.92035 c 1.29146,-1.05153 2.10607,-2.65858 2.10607,-4.46403 0,-3.15458 -2.56305,-5.73379 -5.74203,-5.73379 l -3.63595,0 c -0.0596,-0.01 -0.12419,-0.01 -0.19125,-0.003 z m -49.59828,0.003 c -0.4371,0 -0.79474,0.21824 -1.0133,0.61504 l -4.21214,8.01541 c -0.0795,0.0992 -0.11922,0.1984 -0.15895,0.31744 l -3.2982,6.26948 c -0.29802,0.55553 -0.0795,1.24993 0.47685,1.52769 0.55632,0.2976 1.25173,0.0793 1.52989,-0.47616 l 2.50345,-4.72195 3.25845,4.84099 c 0.21855,0.31744 0.55632,0.496 0.9537,0.496 0.39737,0 0.73513,-0.17856 0.95369,-0.51584 l 3.21871,-4.82115 2.50345,4.72195 c 0.27816,0.55552 0.97356,0.77376 1.52988,0.47616 0.55632,-0.27776 0.77488,-0.97216 0.47685,-1.52769 l -7.70902,-14.60233 c -0.1987,-0.3968 -0.55633,-0.61504 -1.01331,-0.61504 z m 10.7303,0 c -0.67554,0 -1.15238,0.47616 -1.15238,1.13088 l 0,9.20582 0,5.39651 c 0,0.63489 0.51658,1.15073 1.15238,1.15073 0.61593,0 1.13251,-0.51584 1.13251,-1.15073 l 0,-4.24578 2.64252,0 c 3.15912,0 5.74204,-2.57922 5.74204,-5.75364 0,-3.15458 -2.58292,-5.73379 -5.74204,-5.73379 z m 12.84507,0 c -0.67554,0 -1.15239,0.47616 -1.15239,1.13088 l 0,9.20582 0,5.39651 c 0,0.63489 0.51659,1.15073 1.15239,1.15073 0.61592,0 1.13251,-0.51584 1.13251,-1.15073 l 0,-4.24578 2.64252,0 c 3.15911,0 5.74204,-2.57922 5.74204,-5.75364 0,-3.15458 -2.58293,-5.73379 -5.74204,-5.73379 z m 12.34834,0 c -0.67553,0 -1.15238,0.47616 -1.15238,1.13088 l 0,8.78918 0,0.25792 0,5.55523 c 0,0.67457 0.47685,1.15073 1.15238,1.15073 l 8.94088,0 c 0.61593,0 1.13251,-0.51584 1.13251,-1.15073 0,-0.61504 -0.51658,-1.13089 -1.13251,-1.13089 l -7.80837,0 0,-3.39265 7.80837,0 c 0.61593,0 1.13251,-0.51585 1.13251,-1.15073 0,-0.61504 -0.51658,-1.13089 -1.13251,-1.13089 l -6.19902,0 6.99376,-6.98372 c 0.33777,-0.33729 0.43711,-0.7936 0.25829,-1.24993 -0.19868,-0.43648 -0.57618,-0.6944 -1.05303,-0.6944 z m -24.0609,2.28161 2.64252,0 c 1.90739,0 3.45714,1.54753 3.45714,3.45218 0,1.92449 -1.54975,3.47202 -3.45714,3.47202 l -2.64252,0 z m 12.84507,0 2.64252,0 c 1.90739,0 3.45714,1.54753 3.45714,3.45218 0,1.92449 -1.54975,3.47202 -3.45714,3.47202 l -2.64252,0 z m 12.34834,0 5.04663,0 -5.04663,5.03939 z m 14.74004,0 1.62922,0 c 1.90739,0 3.45714,1.54753 3.45714,3.45218 0,1.01185 -0.41724,1.90465 -1.09277,2.53953 z m -51.79626,1.30945 3.00017,5.65444 -2.9803,4.44418 -3.00016,-4.44418 z m -21.4581,0.0198 3.13924,2.65858 -3.13924,2.65857 z m 9.83497,0 0,5.31715 -3.15912,-2.65857 z m 62.42595,1.30945 2.84122,4.28546 -0.21856,0 -2.62266,0 z"
       id="path4245"
       inkscape:export-filename="/home/frankiezafe/forge.arts2/processing/FlatMapper/data/logo.png"
       inkscape:export-xdpi="91.699997"
       inkscape:export-ydpi="91.699997"
       inkscape:connector-curvature="0"
       sodipodi:nodetypes="scccccssscccccsssccssscssscscssssssscccsssccccccccsccccccscccccccccccccccsssscccssssccccccccsssscscccccsscccsccccccccsccccccssscssscsssssscssscssssssccsssssccssscscsscssscccssscccccccsscccccccccccccccccccc" />
    <path
       style="font-style:normal;font-variant:normal;font-weight:200;font-stretch:normal;font-size:31.25px;line-height:125%;font-family:Nemoy;-inkscape-font-specification:'Nemoy Ultra-Light';letter-spacing:0px;word-spacing:0px;display:inline;fill:#ffffff;fill-opacity:1;stroke:#000000;stroke-width:0.1;stroke-linecap:butt;stroke-linejoin:miter;stroke-miterlimit:4;stroke-dasharray:none;stroke-opacity:1"
       d="m -118.94604,455.53472 c -0.1872,0.0141 -0.35087,0.12381 -0.44953,0.28644 -0.28335,-0.0859 -0.58016,-0.13639 -0.88912,-0.13639 -2.02829,0 -3.57759,1.98451 -3.57759,4.31521 0,1.5599 0.69543,2.95392 1.75464,3.71259 l -0.0422,0.12524 c -0.10192,0.30533 0.0618,0.64099 0.36758,0.74276 0.30394,0.10118 0.63726,-0.0602 0.74134,-0.36208 0.24316,0.0625 0.49539,0.0967 0.75625,0.0967 2.02828,0 3.58877,-1.97435 3.58877,-4.31524 0,-1.51553 -0.65639,-2.87361 -1.66772,-3.64562 l 0.0162,-0.0484 c 0.10193,-0.30533 -0.0618,-0.64099 -0.36757,-0.74276 -0.0765,-0.0255 -0.15485,-0.0343 -0.23097,-0.0285 z m -10.91408,0.16234 c -0.0761,-0.006 -0.15453,0.003 -0.23097,0.0285 -0.30578,0.10178 -0.46826,0.43743 -0.36633,0.74277 l 2.54814,7.5008 c 0.0815,0.25444 0.29531,0.39805 0.55012,0.39805 0.265,0 0.47851,-0.14361 0.56004,-0.39805 l 2.55808,-7.5008 c 0.10193,-0.30534 -0.0605,-0.64099 -0.36632,-0.74277 -0.30577,-0.10178 -0.64191,0.0617 -0.74383,0.36704 l -1.99804,5.87144 -1.99804,-5.87144 c -0.0764,-0.22899 -0.28448,-0.37838 -0.51285,-0.39554 z m 17.86312,0.007 c -0.18346,-0.004 -0.34976,0.0753 -0.46442,0.23561 l -1.65158,2.17869 c -0.1427,0.1832 -0.16277,0.40653 -0.0609,0.61008 0.10193,0.21374 0.29582,0.32612 0.53025,0.32612 l 1.06049,0 0,4.14287 -0.60227,0 c -0.32616,0 -0.59109,0.26357 -0.59109,0.57909 0,0.32568 0.26493,0.59148 0.59109,0.59148 l 1.19336,0 1.19211,0 c 0.31597,0 0.58116,-0.2658 0.58116,-0.59148 0,-0.31552 -0.26519,-0.57909 -0.58116,-0.57909 l -0.6122,0 0,-6.91056 c 0,-0.25445 -0.15275,-0.46914 -0.39737,-0.55057 -0.0637,-0.0204 -0.12636,-0.0308 -0.18751,-0.0322 z m -8.28769,1.15197 c 0.16591,0 0.32932,0.0247 0.48802,0.0682 l -1.9049,5.59492 c -0.58697,-0.56567 -0.98847,-1.46503 -0.98847,-2.51846 0,-1.7811 1.13129,-3.14465 2.40535,-3.14466 z m 1.50753,0.713 c 0.54297,0.56931 0.90899,1.42848 0.90899,2.43166 0,1.78111 -1.13228,3.1459 -2.41652,3.1459 -0.12716,0 -0.25045,-0.0233 -0.37378,-0.0496 z m 3.0697,4.87944 c -0.15034,0 -0.30002,0.0567 -0.41724,0.16864 -0.22423,0.23409 -0.22423,0.60043 0,0.83452 l 0.0199,0.0198 -0.0199,0.0211 c -0.22423,0.22391 -0.22423,0.60069 0,0.8246 0.23442,0.23409 0.60031,0.23409 0.82454,0 l 0.0311,-0.0211 0.0199,0.0211 c 0.22423,0.23409 0.60156,0.23409 0.82579,0 0.23443,-0.22391 0.23443,-0.60069 0,-0.8246 l -0.0199,-0.0211 0.0199,-0.0198 c 0.22423,-0.23409 0.22423,-0.60043 0,-0.83452 -0.23442,-0.22392 -0.60156,-0.22392 -0.82579,0 l -0.0199,0.0198 -0.0199,-0.0198 c -0.11722,-0.11196 -0.26815,-0.16864 -0.4185,-0.16864 z"
       id="path4245-5-6"
       inkscape:export-filename="/home/frankiezafe/forge.arts2/processing/FlatMapper/data/logo.png"
       inkscape:export-xdpi="91.699997"
       inkscape:export-ydpi="91.699997"
       inkscape:connector-curvature="0"
       sodipodi:nodetypes="ccssccccsscccccccccscccccccccccsccssscssscscccsccsscssccsccccscccccccccccs" />
  </g>
</svg>
